<svg width="46" height="46" viewBox="0 0 46 46" fill="none" xmlns="http://www.w3.org/2000/svg">
<circle cx="23" cy="23" r="20" fill="black"/>
<circle cx="23" cy="23" r="21.5" stroke="#98979D" stroke-opacity="0.1" stroke-width="3"/>
<path d="M23 33C22.1716 33 21.5 32.3284 21.5 31.5L21.5 14.5C21.5 13.6716 22.1716 13 23 13C23.8284 13 24.5 13.6716 24.5 14.5L24.5 31.5C24.5 32.3284 23.8284 33 23 33Z" fill="white"/>
<path d="M13 23C13 22.1716 13.6716 21.5 14.5 21.5L31.5 21.5C32.3284 21.5 33 22.1716 33 23C33 23.8284 32.3284 24.5 31.5 24.5L14.5 24.5C13.6716 24.5 13 23.8284 13 23Z" fill="white"/>
</svg>
