<svg width="40" height="40" viewBox="0 0 40 40" fill="none" xmlns="http://www.w3.org/2000/svg">
<path d="M36.2544 7.05501L25.4949 12.4854L14.7355 7.05501C14.7018 7.04389 14.667 7.03646 14.6318 7.03282C14.5924 7.01501 14.5497 7.00574 14.5066 7.00563C14.4634 7.00551 14.4207 7.01454 14.3812 7.03213C14.345 7.03578 14.3092 7.04345 14.2746 7.05501L3.28474 12.6016C3.19918 12.6448 3.12722 12.7112 3.07693 12.7934C3.02664 12.8756 3 12.9702 3 13.0668V32.48C3.00002 32.5686 3.02248 32.6558 3.06524 32.7332C3.10801 32.8106 3.16966 32.8757 3.24436 32.9223C3.31905 32.9689 3.4043 32.9955 3.49202 32.9995C3.57974 33.0035 3.66701 32.9848 3.74556 32.9452L14.5051 27.5148L25.2645 32.9452C25.3361 32.9812 25.415 33 25.4949 33C25.5749 33 25.6538 32.9812 25.7254 32.9452L36.7153 27.3985C36.8008 27.3553 36.8728 27.2889 36.9231 27.2068C36.9734 27.1246 37 27.0299 37 26.9334V7.52016C37.0001 7.4315 36.9776 7.3443 36.9349 7.26685C36.8921 7.18939 36.8305 7.12426 36.7558 7.07765C36.6811 7.03103 36.5958 7.00448 36.508 7.00052C36.4203 6.99656 36.333 7.01531 36.2544 7.05501ZM24.9798 31.6387L15.0202 26.6121V8.36144L24.9798 13.3881V31.6387Z" fill="black"/>
</svg>
