<svg width="40" height="40" viewBox="0 0 40 40" fill="none" xmlns="http://www.w3.org/2000/svg">
<path d="M23.6066 14.5829C22.1086 14.5829 20.9127 15.4581 20.1322 15.4581C19.3139 15.4581 18.2313 14.6315 16.9347 14.6315C14.4925 14.6315 12 16.6008 12 20.2841C12 22.5937 12.919 25.0128 14.0519 26.5809C15.0338 27.906 15.8899 29 17.1109 29C18.332 29 18.8733 28.2099 20.3839 28.2099C21.9072 28.2099 22.2596 28.9757 23.6066 28.9757C24.9284 28.9757 25.8222 27.7965 26.653 26.6296C27.5972 25.2924 27.9874 24.0038 28 23.9309C27.9245 23.9066 25.3816 22.9098 25.3816 20.0896C25.3816 17.6462 27.3832 16.5643 27.4965 16.4792C26.1747 14.6315 24.1605 14.5829 23.6066 14.5829ZM22.9017 13.0269C23.5059 12.3218 23.9465 11.3493 23.9465 10.3768C23.9465 10.2431 23.9339 10.1094 23.9087 10C22.9142 10.0365 21.7183 10.6321 21.0134 11.4344C20.4595 12.0544 19.9308 13.0269 19.9308 14.0115C19.9308 14.1574 19.9559 14.3033 19.9685 14.3519C20.0315 14.364 20.1322 14.3762 20.2329 14.3762C21.1267 14.3762 22.247 13.8049 22.9017 13.0269Z" fill="white"/>
</svg>
