<svg width="24" height="25" viewBox="0 0 24 25" fill="none" xmlns="http://www.w3.org/2000/svg">
<path d="M13.2028 19.1892C13.4076 19.3912 13.6502 19.5 13.9384 19.5C14.5223 19.5 15 19.0183 15 18.4201C15 18.1249 14.8787 17.8452 14.6664 17.6354L9.50995 12.4922L14.6664 7.36459C14.8787 7.14706 15 6.86737 15 6.57991C15 5.98169 14.5223 5.5 13.9384 5.5C13.6427 5.5 13.4 5.601 13.2028 5.803L7.38673 11.6299C7.12891 11.8862 7 12.1659 7 12.5C7 12.8263 7.12133 13.106 7.38673 13.3701L13.2028 19.1892Z" fill="black"/>
</svg>
