<svg width="46" height="47" viewBox="0 0 46 47" fill="none" xmlns="http://www.w3.org/2000/svg">
<circle cx="23" cy="23.5" r="20" fill="white"/>
<circle cx="23" cy="23.5" r="21.5" stroke="white" stroke-opacity="0.25" stroke-width="3"/>
<path d="M30.0704 30.5712C29.4846 31.157 28.5349 31.157 27.9491 30.5712L15.9283 18.5504C15.3425 17.9646 15.3425 17.0148 15.9283 16.429C16.5141 15.8433 17.4638 15.8433 18.0496 16.429L30.0704 28.4499C30.6562 29.0356 30.6562 29.9854 30.0704 30.5712Z" fill="black"/>
<path d="M15.9283 30.5714C15.3425 29.9856 15.3425 29.0359 15.9283 28.4501L27.9492 16.4293C28.5349 15.8435 29.4847 15.8435 30.0705 16.4293C30.6563 17.0151 30.6563 17.9648 30.0705 18.5506L18.0497 30.5714C17.4639 31.1572 16.5141 31.1572 15.9283 30.5714Z" fill="black"/>
</svg>
