<svg width="25" height="24" viewBox="0 0 25 24" fill="none" xmlns="http://www.w3.org/2000/svg">
<path fill-rule="evenodd" clip-rule="evenodd" d="M15.4981 9.82663C15.9485 9.3721 15.8024 8.90722 15.5886 8.6915C15.3749 8.47578 14.9142 8.32831 14.4639 8.78283L12.3267 10.9397L10.1936 8.78685C9.72043 8.30931 9.28198 8.47239 9.06487 8.6915C8.84776 8.91061 8.63916 9.30566 9.15934 9.83064L11.2925 11.9835L9.16332 14.1323C8.71295 14.5868 8.85112 15.0597 9.06487 15.2754C9.27861 15.4912 9.7472 15.6306 10.1976 15.1761L12.3267 13.0273L14.4599 15.1801C14.9084 15.6327 15.3782 15.4878 15.592 15.272C15.8057 15.0563 15.9427 14.5889 15.4942 14.1363L13.361 11.9835L15.4981 9.82663ZM12.3475 20C7.9552 20 4.39453 16.4183 4.39453 12C4.39453 7.58172 7.9552 4 12.3475 4C16.7398 4 20.3005 7.58172 20.3005 12C20.3005 16.4183 16.7398 20 12.3475 20Z" fill="#8A898E"/>
</svg>
