<svg width="28" height="29" viewBox="0 0 28 29" fill="none" xmlns="http://www.w3.org/2000/svg">
<path fill-rule="evenodd" clip-rule="evenodd" d="M14 28.5C21.732 28.5 28 22.232 28 14.5C28 6.76801 21.732 0.5 14 0.5C6.26801 0.5 0 6.76801 0 14.5C0 22.232 6.26801 28.5 14 28.5Z" fill="#F1F1F1"/>
<path fill-rule="evenodd" clip-rule="evenodd" d="M19.2511 7.20711C18.8605 6.81658 18.2274 6.81658 17.8368 7.20711L16.479 8.56494L20.0145 12.1005L21.3724 10.7426C21.7629 10.3521 21.7629 9.71895 21.3724 9.32843L19.2511 7.20711ZM18.6003 13.5147L15.0648 9.97915L9.02361 16.0203C8.92222 16.1217 8.84382 16.2437 8.79373 16.3781L7.53258 19.7606C7.23326 20.5633 8.01614 21.3462 8.81893 21.0469L12.2014 19.7858C12.3357 19.7357 12.4578 19.6573 12.5591 19.5559L18.6003 13.5147Z" fill="black"/>
</svg>
