<svg width="40" height="40" viewBox="0 0 40 40" fill="none" xmlns="http://www.w3.org/2000/svg">
<path d="M20.6735 18.2857H28.8637C28.938 18.7107 29 19.1357 29 19.6943C29 24.5514 25.6793 28 20.6735 28C15.8783 28 12 24.1993 12 19.5C12 14.8007 15.8783 11 20.6735 11C23.0153 11 24.973 11.8379 26.4847 13.2221L24.1305 15.4443C23.4862 14.8371 22.3586 14.1329 20.6735 14.1329C17.7121 14.1329 15.2959 16.5371 15.2959 19.5C15.2959 22.4629 17.7121 24.8671 20.6735 24.8671C24.1057 24.8671 25.3943 22.4507 25.5926 21.2H20.6735V18.2857Z" fill="#F2F2F2"/>
</svg>
