<svg width="40" height="40" viewBox="0 0 40 40" fill="none" xmlns="http://www.w3.org/2000/svg">
<path fill-rule="evenodd" clip-rule="evenodd" d="M20.001 9C17.0136 9 16.6387 9.01306 15.4653 9.06646C14.2943 9.12008 13.4949 9.30548 12.7955 9.57751C12.072 9.85847 11.4583 10.2343 10.8469 10.846C10.235 11.4574 9.85915 12.0711 9.57728 12.7944C9.30457 13.494 9.11894 14.2936 9.06623 15.4642C9.01375 16.6375 9 17.0127 9 20.0001C9 22.9876 9.01329 23.3613 9.06646 24.5347C9.12031 25.7057 9.30571 26.5051 9.57751 27.2045C9.8587 27.928 10.2345 28.5417 10.8462 29.1531C11.4574 29.765 12.0711 30.1418 12.7941 30.4227C13.494 30.6947 14.2936 30.8801 15.4644 30.9338C16.6377 30.9872 17.0124 31.0002 19.9997 31.0002C22.9873 31.0002 23.3611 30.9872 24.5345 30.9338C25.7055 30.8801 26.5058 30.6947 27.2056 30.4227C27.9289 30.1418 28.5417 29.765 29.1529 29.1531C29.7648 28.5417 30.1406 27.928 30.4225 27.2047C30.6929 26.5051 30.8785 25.7055 30.9335 24.5349C30.9862 23.3616 31 22.9876 31 20.0001C31 17.0127 30.9862 16.6377 30.9335 15.4644C30.8785 14.2933 30.6929 13.494 30.4225 12.7946C30.1406 12.0711 29.7648 11.4574 29.1529 10.846C28.541 10.2341 27.9291 9.85824 27.205 9.57751C26.5037 9.30548 25.7039 9.12008 24.5328 9.06646C23.3595 9.01306 22.986 9 19.9976 9H20.001ZM19.6338 10.982H19.6341L20.0007 10.9821C22.9378 10.9821 23.2859 10.9927 24.4457 11.0454C25.5182 11.0944 26.1003 11.2736 26.4881 11.4242C27.0014 11.6236 27.3674 11.8619 27.7522 12.2469C28.1372 12.6319 28.3755 12.9986 28.5753 13.5119C28.7259 13.8992 28.9053 14.4813 28.9541 15.5538C29.0069 16.7134 29.0183 17.0617 29.0183 19.9974C29.0183 22.933 29.0069 23.2814 28.9541 24.441C28.9051 25.5135 28.7259 26.0956 28.5753 26.4829C28.376 26.9962 28.1372 27.3617 27.7522 27.7465C27.3672 28.1315 27.0016 28.3699 26.4881 28.5692C26.1008 28.7205 25.5182 28.8992 24.4457 28.9483C23.2861 29.001 22.9378 29.0124 20.0007 29.0124C17.0635 29.0124 16.7154 29.001 15.5558 28.9483C14.4833 28.8988 13.9012 28.7196 13.5132 28.569C12.9999 28.3696 12.6332 28.1313 12.2482 27.7463C11.8632 27.3613 11.6248 26.9955 11.425 26.482C11.2744 26.0947 11.095 25.5126 11.0462 24.4401C10.9935 23.2805 10.9829 22.9321 10.9829 19.9946C10.9829 17.0572 10.9935 16.7106 11.0462 15.5511C11.0952 14.4785 11.2744 13.8965 11.425 13.5087C11.6244 12.9954 11.8632 12.6287 12.2482 12.2437C12.6332 11.8587 12.9999 11.6203 13.5132 11.4205C13.9009 11.2693 14.4833 11.0905 15.5558 11.0412C16.5705 10.9954 16.9638 10.9817 19.0139 10.9794V10.9821C19.2054 10.9818 19.4114 10.9819 19.6337 10.982H19.6338H19.6338ZM24.5528 14.1281C24.5528 13.3992 25.144 12.8086 25.8728 12.8086V12.8081C26.6015 12.8081 27.1928 13.3994 27.1928 14.1281C27.1928 14.8569 26.6015 15.4482 25.8728 15.4482C25.144 15.4482 24.5528 14.8569 24.5528 14.1281ZM20.0004 14.3509C16.8808 14.351 14.3516 16.8803 14.3516 19.9999C14.3516 23.1196 16.8809 25.6478 20.0006 25.6478C23.1203 25.6478 25.6487 23.1196 25.6487 19.9999C25.6487 16.8802 23.1201 14.3509 20.0004 14.3509ZM23.6674 19.9999C23.6674 17.9747 22.0257 16.3332 20.0007 16.3332C17.9756 16.3332 16.334 17.9747 16.334 19.9999C16.334 22.0248 17.9756 23.6666 20.0007 23.6666C22.0257 23.6666 23.6674 22.0248 23.6674 19.9999Z" fill="#F2F2F2"/>
</svg>
