<svg width="28" height="29" viewBox="0 0 28 29" fill="none" xmlns="http://www.w3.org/2000/svg">
<rect y="0.5" width="28" height="28" rx="14" fill="#F1F1F1"/>
<path fill-rule="evenodd" clip-rule="evenodd" d="M8 16.5C9.10457 16.5 10 15.6046 10 14.5C10 13.3954 9.10457 12.5 8 12.5C6.89543 12.5 6 13.3954 6 14.5C6 15.6046 6.89543 16.5 8 16.5Z" fill="black"/>
<path fill-rule="evenodd" clip-rule="evenodd" d="M14 16.5C15.1046 16.5 16 15.6046 16 14.5C16 13.3954 15.1046 12.5 14 12.5C12.8954 12.5 12 13.3954 12 14.5C12 15.6046 12.8954 16.5 14 16.5Z" fill="black"/>
<path fill-rule="evenodd" clip-rule="evenodd" d="M20 16.5C21.1046 16.5 22 15.6046 22 14.5C22 13.3954 21.1046 12.5 20 12.5C18.8954 12.5 18 13.3954 18 14.5C18 15.6046 18.8954 16.5 20 16.5Z" fill="black"/>
</svg>
