<svg width="28" height="28" viewBox="0 0 28 28" fill="none" xmlns="http://www.w3.org/2000/svg">
<path opacity="0.3" fill-rule="evenodd" clip-rule="evenodd" d="M14 28C21.732 28 28 21.732 28 14C28 6.26801 21.732 0 14 0C6.26801 0 0 6.26801 0 14C0 21.732 6.26801 28 14 28Z" fill="black"/>
<path d="M14 24C8.47715 24 4 19.5228 4 14C4 8.47715 8.47715 4 14 4C19.5228 4 24 8.47715 24 14C24 19.5228 19.5228 24 14 24ZM14 22.1818C18.5187 22.1818 22.1818 18.5187 22.1818 14C22.1818 9.48131 18.5187 5.81818 14 5.81818C9.48131 5.81818 5.81818 9.48131 5.81818 14C5.81818 18.5187 9.48131 22.1818 14 22.1818ZM14 14.3472L17.1338 15.9142C17.5829 16.1387 17.7649 16.6848 17.5404 17.1338C17.3159 17.5829 16.7698 17.7649 16.3207 17.5404L12.6844 15.7222C12.3764 15.5682 12.1818 15.2534 12.1818 14.9091V9.45455C12.1818 8.95247 12.5888 8.54545 13.0909 8.54545C13.593 8.54545 14 8.95247 14 9.45455V14.3472Z" fill="white"/>
</svg>
