<svg width="40" height="40" viewBox="0 0 40 40" fill="none" xmlns="http://www.w3.org/2000/svg">
<path d="M34.0516 17.8265C34.8174 18.0427 35.8671 18.3388 35.9892 18.9609C36.0717 19.3933 35.6591 19.8058 35.537 19.9589C33.9394 21.6221 26.1001 23.2555 23.4033 23.984C21.3899 24.5296 11.7879 27.1709 8.86011 27.9094C8.39286 28.0435 7.89585 28.0284 7.43748 27.8662C6.82683 27.6233 6.54627 27.1343 6.14688 26.5355C5.18305 25.0552 4.16641 23.6048 3.24879 22.1012C3.14402 21.9678 3.06961 21.8129 3.03083 21.6473C2.99204 21.4818 2.98983 21.3096 3.02434 21.1431C3.06411 21.0168 3.13444 20.9025 3.22899 20.8105C3.43309 20.6303 3.69182 20.5253 3.96284 20.5126C4.23387 20.4999 4.50115 20.5803 4.72094 20.7406C5.77719 21.529 6.84004 22.3074 7.89299 23.0992C7.9608 23.1547 8.04145 23.1921 8.12744 23.2078C8.21343 23.2235 8.30196 23.217 8.3848 23.189C11.01 22.4704 13.6374 21.7608 16.2671 21.06C16.541 20.9868 16.6433 20.9335 16.4618 20.6242C15.2273 18.5251 14.0126 16.416 12.7913 14.3036C12.6006 14.0184 12.5159 13.6745 12.5521 13.3325C12.5884 12.9905 12.7432 12.6723 12.9894 12.4341C13.2617 12.1917 13.6033 12.0424 13.965 12.0078C14.3267 11.9731 14.6901 12.0548 15.0029 12.2412C15.7455 12.7601 16.475 13.299 17.2111 13.8313C19.4732 15.468 21.7331 17.108 23.9909 18.7513C24.0528 18.7976 24.1236 18.8304 24.1988 18.8478C24.2956 18.868 24.3961 18.8611 24.4893 18.8278C24.7071 18.758 28.0079 17.7101 30.0445 17.4972C30.704 17.4432 31.3671 17.4521 32.0249 17.5238C32.7093 17.5516 33.3887 17.6531 34.0516 17.8265Z" fill="#EF7340"/>
</svg>
