<svg width="28" height="28" viewBox="0 0 28 28" fill="none" xmlns="http://www.w3.org/2000/svg">
<path opacity="0.3" fill-rule="evenodd" clip-rule="evenodd" d="M14 28C21.732 28 28 21.732 28 14C28 6.26801 21.732 0 14 0C6.26801 0 0 6.26801 0 14C0 21.732 6.26801 28 14 28Z" fill="black"/>
<path d="M12.8047 7.04688L13.0391 16.5H15.5L15.7344 7.04688H12.8047ZM14.2695 21.3828C15.1582 21.3828 15.8613 20.709 15.8613 19.8496C15.8613 18.9902 15.1582 18.3164 14.2695 18.3164C13.3809 18.3164 12.6777 18.9902 12.6777 19.8496C12.6777 20.709 13.3809 21.3828 14.2695 21.3828Z" fill="white"/>
</svg>
