<svg width="40" height="40" viewBox="0 0 40 40" fill="none" xmlns="http://www.w3.org/2000/svg">
<path fill-rule="evenodd" clip-rule="evenodd" d="M33.3553 13.0066C33.5523 12.4145 33.3553 12 32.4362 12H29.3724C28.5846 12 28.2344 12.375 28.0374 12.7895C28.0374 12.7895 26.4837 16.2237 24.2734 18.4342C23.5512 19.0855 23.2448 19.2829 22.8509 19.2829C22.6539 19.2829 22.3694 19.0855 22.3694 18.4934V13.0066C22.3694 12.2961 22.1506 12 21.4941 12H16.6795C16.1981 12 15.8917 12.3355 15.8917 12.6316C15.8917 13.3026 16.9859 13.4605 17.1172 15.3158V19.3816C17.1172 20.2697 16.9421 20.4276 16.5482 20.4276C15.5197 20.4276 12.9811 16.9934 11.4929 13.0461C11.1866 12.3158 10.9021 12 10.1142 12H7.05044C6.17507 12 6 12.375 6 12.7895C6 13.5197 7.02856 17.1513 10.8364 21.9474C13.375 25.2237 16.9421 27 20.181 27C22.1287 27 22.3694 26.6053 22.3694 25.9342V23.4474C22.3694 22.6579 22.5445 22.5 23.1791 22.5C23.6387 22.5 24.4047 22.6974 26.2211 24.2763C28.3001 26.1513 28.6502 27 29.8101 27H32.8739C33.7492 27 34.1869 26.6053 33.9243 25.8355C33.6398 25.0658 32.655 23.9408 31.342 22.5987C30.6198 21.8289 29.5475 21.0197 29.2411 20.6053C28.7815 20.0724 28.9128 19.8355 29.2411 19.3816C29.2411 19.3618 32.9833 14.625 33.3553 13.0066Z" fill="white"/>
</svg>
